# xmcd
# 
# Track frame offsets:
#     150
#     16815
#     34317
#     51217
#     67240
#     80550
#     94960
#     104470
#     119667
#     137687
#     154862
#     168047
#     181555
#     201960
#     211942
#     223955
# 
# Disc length: 3171
# 
# Revision: 1
# Processed by: cddbd v1.5.2PL0 Copyright (c) Steve Scherf et al.
# Submitted via: BonkEnc v1.0.15
# 
DISCID=e90c6110
DTITLE=徐小鳳 - 白金珍藏版
DYEAR=1990
DGENRE=Pop-Folk
TTITLE0=無奈
TTITLE1=人似浪花
TTITLE2=深秋立樓頭
TTITLE3=夜風中
TTITLE4=人生滿希望
TTITLE5=春夏秋冬
TTITLE6=賣餛飩
TTITLE7=雪後有春風
TTITLE8=風的季節
TTITLE9=漫漫前路
TTITLE10=風雨同路
TTITLE11=漫天風雨.....
TTITLE12=歌聲暖我心
TTITLE13=賣湯圓
TTITLE14=逍遙四方
TTITLE15=音樂盒
EXTD=
EXTT0=
EXTT1=
EXTT2=
EXTT3=
EXTT4=
EXTT5=
EXTT6=
EXTT7=
EXTT8=
EXTT9=
EXTT10=
EXTT11=
EXTT12=
EXTT13=
EXTT14=
EXTT15=
PLAYORDER=
